<?xml version="1.0" encoding="utf-8"?>
<!-- Generator: Adobe Illustrator 22.0.1, SVG Export Plug-In . SVG Version: 6.00 Build 0)  -->
<svg version="1.1" id="Слой_1" xmlns="http://www.w3.org/2000/svg" xmlns:xlink="http://www.w3.org/1999/xlink" x="0px" y="0px"
	 viewBox="0 0 670.2 117.3" style="enable-background:new 0 0 670.2 117.3;" xml:space="preserve">
<style type="text/css">
	.st0{fill:#FFFFFF;}
	.st1{fill:#BFBFBF;}
	.st2{fill:#C6C6C5;}
	.st3{fill:#F7F7F7;}
	.st4{fill:#DCDBDB;}
	.st5{fill:#EAEAEA;}
	.st6{fill:#E8E8E8;}
	.st7{fill:#D2D2D1;}
</style>
<g>
	<path class="st0" d="M198.2,69.5h-18.8l-3.5,6.8h-7.6l20.5-40.9l20.5,40.9h-7.6L198.2,69.5z M182.7,62.7h12l-6-12L182.7,62.7z"/>
	<path class="st0" d="M250.3,69.5h-18.8l-3.5,6.8h-7.6l20.5-40.9l20.5,40.9h-7.6L250.3,69.5z M234.9,62.7h12l-6-12L234.9,62.7z"/>
	<path class="st0" d="M303,59.3c-3.3,0-6.1-1.2-8.4-3.5c-2.3-2.3-3.5-5.2-3.5-8.5c0-3.3,1.2-6.1,3.5-8.4c2.3-2.4,5.1-3.5,8.4-3.5
		h21.8v6.8H303c-0.7,0-1.4,0.1-2,0.4c-0.6,0.3-1.2,0.6-1.7,1.1c-0.5,0.5-0.8,1-1.1,1.7c-0.3,0.6-0.4,1.3-0.4,1.9
		c0,1.4,0.5,2.6,1.5,3.7c1,1,2.2,1.5,3.7,1.5h10.2c3.3,0,6.1,1.2,8.4,3.5c2.4,2.3,3.5,5.1,3.5,8.4c0,3.3-1.2,6.1-3.5,8.4
		c-2.3,2.3-5.1,3.5-8.4,3.5h-22.1v-6.8h22.1c0.7,0,1.4-0.1,2-0.4c0.6-0.3,1.2-0.6,1.7-1.1c0.5-0.5,0.8-1,1.1-1.6
		c0.3-0.6,0.4-1.3,0.4-2c0-1.4-0.5-2.6-1.5-3.6c-1-1-2.2-1.5-3.6-1.5H303z"/>
	<path class="st0" d="M356.5,35.4c5.7,0,10.5,2,14.4,6c4,4,6.1,8.8,6.1,14.5c0,5.7-2,10.5-6.1,14.5c-4,4-8.8,6-14.4,6
		c-5.7,0-10.5-2-14.5-6c-4-4-6-8.8-6-14.5c0-5.6,2-10.4,6-14.5C346,37.4,350.8,35.4,356.5,35.4z M356.5,42.3c-3.7,0-7,1.3-9.7,4
		c-2.6,2.7-4,5.9-4,9.6s1.3,7,4,9.7c2.7,2.6,5.9,4,9.7,4c3.7,0,6.9-1.3,9.6-4c2.7-2.7,4-5.9,4-9.7s-1.3-6.9-4-9.6
		C363.4,43.6,360.2,42.3,356.5,42.3z"/>
	<path class="st0" d="M415.3,35.4v6.8h-20.5v13.6h20.5v6.9h-20.5v13.6H388V35.4H415.3z"/>
	<path class="st0" d="M426.3,35.4h34.1v6.8h-13.6v34.1H440V42.3h-13.7V35.4z"/>
	<path class="st0" d="M478.6,35.4l12.9,25.7l12.8-25.7l12.9,25.7l12.9-25.7h7.6l-20.5,40.9l-12.9-25.7l-12.8,25.7L471,35.4H478.6z"
		/>
	<path class="st0" d="M573.1,69.5h-18.8l-3.5,6.8h-7.6l20.5-40.9l20.5,40.9h-7.6L573.1,69.5z M557.6,62.7h12l-6-12L557.6,62.7z"/>
	<path class="st0" d="M621.3,76.4l-7.9-13.6h-11.6v13.6H595V35.4h20.5c3.7,0,6.9,1.3,9.6,4c2.7,2.7,4,5.9,4,9.6
		c0,2.8-0.8,5.4-2.4,7.7c-1.6,2.3-3.6,3.9-6,4.9l8.4,14.7H621.3z M615.5,42.3h-13.7v13.6l13.7,0.1c1.8,0,3.4-0.7,4.8-2
		c1.3-1.3,2-2.9,2-4.8c0-1.8-0.7-3.4-2-4.8C618.9,42.9,617.3,42.3,615.5,42.3z"/>
	<path class="st0" d="M667.4,35.4v6.8h-20.5v10.3h20.5v6.8h-20.5v10.2h20.5v6.8h-27.3V35.4H667.4z"/>
	<polygon class="st0" points="276.2,53.8 270.7,61.8 272,63.8 276.2,61.8 280.4,63.8 281.7,61.8 	"/>
</g>
<g>
	<polygon class="st1" points="64.7,74.8 46.5,101.8 17,115.7 2,93 	"/>
	<polygon class="st2" points="64.7,74.8 82.8,101.8 112.3,115.7 127.3,93 	"/>
	<polygon class="st3" points="64.7,1.8 2,93 64.7,53.1 	"/>
	<polygon class="st4" points="17,115.7 64.7,53.1 2,93 	"/>
	<polygon class="st5" points="17,115.7 2,93 43.5,81 	"/>
	<polygon class="st6" points="64.7,1.8 127.3,93 64.7,53.1 	"/>
	<polygon class="st7" points="112.3,115.7 64.7,53.1 127.3,93 	"/>
	<polygon class="st5" points="112.3,115.7 127.3,93 85.9,81 	"/>
	<polygon class="st7" points="64.7,74.8 17,115.7 46.5,101.8 	"/>
	<polygon class="st7" points="82.8,101.8 64.7,74.8 112.3,115.7 	"/>
</g>
</svg>
