<svg xmlns="http://www.w3.org/2000/svg" xmlns:xlink="http://www.w3.org/1999/xlink" width="27.88" height="15" viewBox="0 0 27.88 15"><defs><path id="4tpsa" d="M218.88 1443.55a1.11 1.11 0 0 0 .78-1.9l-4-4 4.03-4.36a1.11 1.11 0 1 0-1.63-1.52l-4.76 5.15c-.41.44-.4 1.12.03 1.54l4.76 4.77c.21.2.5.32.79.32zm16.12 0c.3 0 .6-.13.82-.36l4.76-5.13c.4-.44.4-1.13-.03-1.55l-4.76-4.76a1.11 1.11 0 1 0-1.58 1.57l4 4-4.03 4.36a1.11 1.11 0 0 0 .82 1.87zm-10.86 1.45c.45 0 .86-.27 1.03-.69l5.6-12.78a1.11 1.11 0 0 0-2.04-.9l-5.61 12.81a1.11 1.11 0 0 0 1.02 1.56z"/></defs><g><g transform="translate(-213 -1430)"><use fill="#050505" xlink:href="#4tpsa"/></g></g></svg>