<svg xmlns="http://www.w3.org/2000/svg" xmlns:xlink="http://www.w3.org/1999/xlink" width="20.93" height="30" viewBox="0 0 20.93 30"><defs><path id="2cqga" d="M226.63 843.62l.7-.3a5.44 5.44 0 0 1 2.84-.65c.27.01.62.09 1 .17 1.02.21 2.18.46 3-.1.4-.3.65-.74.74-1.33.11-.79-.36-1.64-1.27-2.28a5.3 5.3 0 0 0-5.48-.26.56.56 0 0 0 .53 1c1.7-.9 3.38-.47 4.3.18.54.38.85.85.8 1.2-.06.4-.22.52-.27.56-.41.28-1.36.08-2.12-.08-.42-.08-.81-.17-1.16-.19-1.47-.09-2.35.3-3.36.75l-.68.29c-1.41.58-2.6.21-4.1-.36-1.46-.56-2.56-.35-3.73-.13l-.95.16c-.96.14-1.75-.14-2.1-.75a1.4 1.4 0 0 1 .12-1.58c.8-1.03 2.71-1.25 5.13-.58a.56.56 0 0 0 .3-1.09c-4.14-1.15-5.8.3-6.32.98a2.54 2.54 0 0 0-.21 2.84c.6 1.02 1.81 1.5 3.24 1.3l1-.17c1.1-.2 1.96-.37 3.11.07 1.04.4 2.03.73 3.07.73.6 0 1.22-.1 1.87-.38zm.48-7.65c0 1.06-.54 1.83-1 2.29a5.28 5.28 0 0 1-2.47 1.34c.3-.85.14-1.89.01-2.73a8.8 8.8 0 0 1-.13-1.18c0-.57.2-1.09.58-1.47.34-.34.78-.53 1.24-.53 1.09 0 1.77.87 1.77 2.28zm-.2 3.09a4.31 4.31 0 0 0 1.33-3.1c0-2.03-1.17-3.4-2.9-3.4-.76 0-1.48.31-2.04.87-.59.6-.91 1.4-.9 2.26 0 .42.07.88.14 1.36.21 1.38.3 2.32-.44 2.73a.56.56 0 0 0 .23 1.05l.34.02c1.49 0 3.16-.7 4.24-1.8zm0-9.34c-.05.27-.09.68-.13.91h-2.45c-.04-.23-.08-.64-.13-.91zm-2.9-1.2c-.6-4.3-1.1-10.92.53-12.89.29-.34.61-.5 1.01-.5.41 0 .73.16 1.02.5 1.64 1.98 1.13 8.6.53 12.9zm3.8 2.78c.24-1.33 2.35-13.1-.37-16.39-.5-.6-1.14-.91-1.89-.91-.74 0-1.37.3-1.88.91-2.72 3.28-.62 15.06-.37 16.4.05.26.29.45.56.45h3.4c.26 0 .5-.2.55-.46z"/></defs><g><g transform="translate(-214 -814)"><use fill="#007fd4" xlink:href="#2cqga"/></g></g></svg>