<svg xmlns="http://www.w3.org/2000/svg" xmlns:xlink="http://www.w3.org/1999/xlink" width="19.63" height="30.32" viewBox="0 0 19.63 30.32"><defs><path id="usnda" d="M803.83 829.54a7.03 7.03 0 0 1-7.01 7.02 7.03 7.03 0 0 1-7.02-7.02v-10.72a7.03 7.03 0 0 1 7.02-7.02 7.03 7.03 0 0 1 7 7.02zM796.82 809a9.84 9.84 0 0 0-9.82 9.82v10.69c0 5.4 4.42 9.81 9.82 9.81s9.81-4.41 9.81-9.81v-10.7c0-5.4-4.38-9.81-9.81-9.81z"/><path id="usndb" d="M794.4 820.04c0-1.68 1.02-3.05 2.28-3.05 1.26 0 2.28 1.37 2.28 3.05 0 1.68-1.02 3.05-2.28 3.05-1.26 0-2.28-1.37-2.28-3.05z"/></defs><g><g transform="translate(-787 -809)"><use fill="#fff" xlink:href="#usnda"/></g><g transform="translate(-787 -809)"><use fill="#fff" xlink:href="#usndb"/></g></g></svg>