<svg xmlns="http://www.w3.org/2000/svg" xmlns:xlink="http://www.w3.org/1999/xlink" width="13.67" height="13" viewBox="0 0 13.67 13"><defs><path id="1vuqa" d="M749.67 5209.5c0 .37-.13.74-.37 1.04-.1.15-4.93 5-4.93 5-1.22 1.35-3.32-.6-2.14-1.92l1.97-2.37h-6.85c-.92.01-1.37-.88-1.35-1.75-.02-.87.43-1.76 1.35-1.75h6.85l-1.97-2.37c-1.18-1.31.92-3.27 2.14-1.93 0 0 4.83 4.86 4.93 5.01.24.3.37.67.37 1.04z"/></defs><g><g transform="translate(-736 -5203)"><use fill="#007ed3" xlink:href="#1vuqa"/></g></g></svg>