<svg xmlns="http://www.w3.org/2000/svg" xmlns:xlink="http://www.w3.org/1999/xlink" width="38.04" height="40" viewBox="0 0 38.04 40"><defs><path id="4wyma" d="M884.16 5656.84v-17.5l10.35 10.35a7.8 7.8 0 0 0 5.6 2.31c2.13 0 4.13-.8 5.6-2.31l10.18-10.13v17.28zm12.62-32.26a4.74 4.74 0 0 1 3.38-1.38c1.28 0 2.48.49 3.37 1.38l11.25 11.38.13.13-11.42 11.33a4.74 4.74 0 0 1-3.38 1.38 4.74 4.74 0 0 1-3.38-1.38L885.31 5636zm20.22 9.1l-11.24-11.37a8.06 8.06 0 0 0-5.6-2.31c-2.1 0-4.14.84-5.6 2.31l-11.47 11.42a6.83 6.83 0 0 0-2.09 4.71V5660h38.04v-21.56c0-1.73-.7-3.42-2.04-4.75z"/></defs><g><g transform="translate(-881 -5620)"><use fill="#fff" xlink:href="#4wyma"/></g></g></svg>