<svg xmlns="http://www.w3.org/2000/svg" xmlns:xlink="http://www.w3.org/1999/xlink" width="22.93" height="29.87" viewBox="0 0 22.93 29.87"><defs><path id="2yhga" d="M248.5 1453.13c.07-.06.17-.13.3-.2.1-.06.2-.1.33-.16.1-.07.24-.1.4-.17.94-.33 3.7-1.17 8.94-1.17 5.03 0 7.76.77 8.73 1.07 1 .33 1.3.63 1.3.7l-.1.1-.13.1-.04.03-.23.14-.07.03a2.3 2.3 0 0 1-.26.1l-.1.03c-.1.04-.2.07-.34.14l-.1.03c-.13.03-.23.07-.36.13l-.17.04-.43.1-.2.03-.5.1c-.1.03-.24.03-.37.07l-.33.06c-.1.04-.24.04-.34.07h-.06c-.14.03-.24.03-.37.07-.13.03-.27.03-.43.06-.14.04-.3.04-.44.07l-.43.03c-.17.04-.33.04-.5.04l-.43.03-.6.03-.44.04c-.23 0-.46.03-.7.03H257c-.23 0-.47 0-.7-.03l-.43-.04-.6-.03-.44-.03c-.16 0-.33-.04-.5-.04l-.43-.03c-.17-.03-.3-.03-.43-.07-.14-.03-.3-.03-.44-.06-.13-.04-.23-.04-.36-.07l-.2.07c-.1 0-.2-.04-.3-.04l-.34-.06c-.13-.04-.26-.04-.36-.07l-.5-.1-.2-.03-.44-.1-.16-.07a1.2 1.2 0 0 1-.37-.13l-.13-.04-.3-.1-.1-.03a1 1 0 0 1-.27-.13l-.03-.04c-.07-.03-.17-.06-.24-.13l-.03-.03a.59.59 0 0 1-.17-.14l-.06-.06c-.07-.04-.04-.07.03-.14zm21.3 7.77l.13-.03v-7.64c0-3.2-11-3.23-11.46-3.23-.47 0-11.47.03-11.47 3.23v7.6c.07 0 .1.04.13.07.5.17 11.64 3.9 22.67 0z"/><path id="2yhgb" d="M269.83 1469.26c.04 0 .07 0 .1-.03v-6.9a35.19 35.19 0 0 1-11.06 1.73 40.6 40.6 0 0 1-11.87-1.73v7c2.07.7 12.67 3.87 22.83-.07z"/><path id="2yhgc" d="M247 1470.7v5.94c0 3.2 11 3.23 11.47 3.23.46 0 11.46-.03 11.46-3.23v-5.97a32.22 32.22 0 0 1-11.06 1.9c-5.44 0-9.9-1.2-11.87-1.87z"/></defs><g><g transform="translate(-247 -1450)"><g><use fill="#007ccf" xlink:href="#2yhga"/></g><g><use fill="#007ccf" xlink:href="#2yhgb"/></g><g><use fill="#007ccf" xlink:href="#2yhgc"/></g></g></g></svg>