<svg xmlns="http://www.w3.org/2000/svg" xmlns:xlink="http://www.w3.org/1999/xlink" width="26" height="24" viewBox="0 0 26 24"><defs><path id="u5wya" d="M263.95 1146.71c-.69 0-1.24.56-1.24 1.25 0 .7.55 1.25 1.24 1.25.68 0 1.24-.56 1.24-1.25s-.56-1.25-1.24-1.25zm3.1 0c-.68 0-1.24.56-1.24 1.25 0 .7.56 1.25 1.24 1.25a1.25 1.25 0 1 0 0-2.5zm3.1 0c-.68 0-1.23.56-1.23 1.25 0 .7.55 1.25 1.24 1.25.68 0 1.24-.56 1.24-1.25s-.56-1.25-1.24-1.25zm1.99 3.39h-22.28v-3.91c0-.17.14-.31.31-.31h21.66c.17 0 .3.14.3.3zm0 15.71c0 .17-.14.31-.31.31h-15.25v-14.15h15.56zm-17.43.31h-4.54a.31.31 0 0 1-.3-.3v-13.85h4.84zm17.12-22.12h-21.66c-1.2 0-2.17.98-2.17 2.19v19.62c0 1.2.97 2.19 2.17 2.19h21.66c1.2 0 2.17-.98 2.17-2.19v-19.62c0-1.2-.98-2.19-2.17-2.19z"/></defs><g><g transform="translate(-248 -1144)"><use fill="#007fd4" xlink:href="#u5wya"/></g></g></svg>