<svg xmlns="http://www.w3.org/2000/svg" xmlns:xlink="http://www.w3.org/1999/xlink" width="27" height="30" viewBox="0 0 27 30"><defs><path id="jhnpa" d="M651 1469h-21v-13.5c0-.9.6-1.5 1.5-1.5h18c.9 0 1.5.6 1.5 1.5zm0 7.5c0 .9-.6 1.5-1.5 1.5h-18c-.9 0-1.5-.6-1.5-1.5v-4.5h21zm-1.5-25.5h-18a4.42 4.42 0 0 0-4.5 4.5v21c0 2.55 1.95 4.5 4.5 4.5h18c2.55 0 4.5-1.95 4.5-4.5v-21c0-2.55-1.95-4.5-4.5-4.5z"/><path id="jhnpb" d="M639 1474.5a1.5 1.5 0 1 1 3 0 1.5 1.5 0 0 1-3 0z"/></defs><g><g transform="translate(-627 -1451)"><g><use fill="#007fd4" xlink:href="#jhnpa"/></g><g><use fill="#007fd4" xlink:href="#jhnpb"/></g></g></g></svg>