<svg xmlns="http://www.w3.org/2000/svg" xmlns:xlink="http://www.w3.org/1999/xlink" width="36.21" height="32" viewBox="0 0 36.21 32"><defs><path id="mk1sa" d="M1023.37 1452.41c-.8.78-1.4 1.23-1.93 1.78-1.61.45-2.7.97-4.27.66l-.5 2.48c1.27.25 2.35.15 3.3-.07-.1.59-.2 1.27-.3 2.12l2.52.28c.13-1.2.27-2.58.9-3.52.37-.43 1.27-1.06 2.68-2.55 2.94-.75 5.14-.68 6.63 0 1.53.71 2.55 2.04 3.12 4.49.09.36.34.68.67.84 1.87.91 2.43 1.87 2.5 2.69.04.55-.17 1.19-.63 1.8-1.21-1.24-2-1.8-2.34-2.2-.71-1.02-.78-2.47-.9-3.52l-2.5.28c.1 1.05.22 1.85.37 2.52-1.48-.07-3.1.06-4.42.31l.5 2.5a15.8 15.8 0 0 1 5.35-.11c.7.72 1.5 1.27 2.77 2.66.65 2.24.2 3.59-.67 4.58a6.25 6.25 0 0 1-3.87 1.85c-.73.08-1.27.92-1.05 1.63l.8 2.57-2.4-3.28a1.28 1.28 0 0 0-1-.52c-.77 0-1.72-.19-2.56-.68.46-.72.86-1.22 1.38-1.58.77-.54 2.01-.94 4.5-1.21l-.27-2.52c-2.66.3-4.35.74-5.66 1.65a8.67 8.67 0 0 0-2.5 2.97 5.5 5.5 0 0 1-3.19.8c-.93-.1-1.86-.58-2.94-1.77a11.69 11.69 0 0 0-.7-2.85c.27-1.39 1.45-2.11 2.35-2.7l-1.4-2.1a9.47 9.47 0 0 0-2.63 2.29c-.9-.86-1.95-1.46-3.1-2.28l-1.47 2.07c1.54 1.1 2.6 1.7 3.24 2.47.52.62.9 1.43 1.13 2.93-2.25.56-4.19.33-5.4-.45-1.41-.9-2.2-2.5-1.62-5.48.03-.2.02-.4-.03-.6a5.5 5.5 0 0 1-.08-3.4c.35-.95 1.09-1.82 2.76-2.55.34-.14.61-.44.72-.8.35-1.22.88-1.9 1.68-2.36.8-.44 2-.65 3.75-.46.44.05.9-.15 1.16-.51.93-1.27 1.9-1.92 2.88-2.03 1-.07 2.06.45 2.67.88zm-2.93-3.4c-1.68.19-3.1 1.19-4.23 2.55-1.74-.1-3.29.07-4.54.76a6.09 6.09 0 0 0-2.67 3.33 7.02 7.02 0 0 0-3.62 3.72 7.72 7.72 0 0 0-.03 4.7c-.57 3.5.52 6.35 2.76 7.78 2.11 1.36 4.94 1.45 7.88.6a7.12 7.12 0 0 0 4.12 2.18c1.4.17 2.78-.25 4.13-.9a7.22 7.22 0 0 0 3.77 1.43l3.9 5.33c.38.52 1.18.67 1.72.32l1.26-.83c.46-.3.68-.91.52-1.44l-1.28-4.04a8.06 8.06 0 0 0 4-2.42c1.3-1.51 1.86-3.76 1.26-6.4a5.47 5.47 0 0 0 1.8-4.27c-.13-1.73-1.35-3.32-3.39-4.47-.75-2.65-2.2-4.66-4.34-5.65-2.14-.98-4.77-.95-7.82-.25-1.69-1.18-3.39-2.18-5.2-2.02z"/></defs><g><g transform="translate(-1005 -1449)"><use fill="#007ccf" xlink:href="#mk1sa"/></g></g></svg>