<svg xmlns="http://www.w3.org/2000/svg" xmlns:xlink="http://www.w3.org/1999/xlink" width="56.66" height="27.43" viewBox="0 0 56.66 27.43"><defs><path id="wodta" d="M637.45 1151.9l-.3.18-.35-.18-7.87-3.69 8.16-3.87 8.17 3.87zm-1.49 14.66l-8.64-4.05V1150l8.64 4.05h.06v12.51zm11.02-4.05l-8.7 4.05v-12.51h.06l8.64-4.05v3.27h2.33v-5.12c0-.36-.24-.71-.54-.9l-10.96-5.12a1.82 1.82 0 0 0-1.37 0l-10.9 5.13a.98.98 0 0 0-.54.9v15.18c0 .36.24.72.6.9l10.9 5.06c.41.18.95.18 1.37 0l10.9-5.06c.36-.18.6-.54.6-.9v-4.29h-2.33v3.46z"/><path id="wodtb" d="M677.66 1148.21l-8.16-3.87-8.16 3.87 7.8 3.7.36.17.3-.18zm4-.06v15.2c0 .35-.24.7-.6.89l-10.9 5.06c-.42.18-.95.18-1.37 0l-10.84-5.12c-.36-.18-.6-.54-.6-.9V1159h2.32v3.46l8.7 4.05v-12.45h-.06l-8.64-4.05v3.27h-2.32v-5.12c0-.36.18-.71.54-.9l10.9-5.12c.42-.17.95-.17 1.37 0l10.9 5.13c.3.18.54.53.54.9zm-2.39 1.85l-8.63 4.05h-.06v12.51l8.7-4.05z"/><path id="wodtc" d="M643.71 1156.2c0 .65.54 1.13 1.13 1.13h16.86c.66 0 1.13-.54 1.13-1.13 0-.6-.53-1.14-1.13-1.14h-16.8c-.65-.06-1.19.48-1.19 1.14z"/></defs><g><g transform="translate(-625 -1142)"><g><use fill="#007ccf" xlink:href="#wodta"/></g><g><use fill="#007ccf" xlink:href="#wodtb"/></g><g><use fill="#007ccf" xlink:href="#wodtc"/></g></g></g></svg>