<svg xmlns="http://www.w3.org/2000/svg" xmlns:xlink="http://www.w3.org/1999/xlink" width="22.26" height="20" viewBox="0 0 22.26 20"><defs><path id="52zma" d="M1369.57 6747.6c1.47 0 2.67 1.08 2.67 2.4 0 1.34-1.2 2.42-2.67 2.42-1.49 0-2.68-1.08-2.68-2.41s1.2-2.41 2.68-2.41zm-2.32 6.64h4.62v13.36h-4.62z"/><path id="52zmb" d="M1374.77 6754.23h4.42v1.83h.06c.62-1.05 2.12-2.15 4.37-2.15 4.66 0 5.53 2.76 5.53 6.36v7.32h-4.6v-6.5c0-1.54-.03-3.54-2.4-3.54-2.4 0-2.76 1.7-2.76 3.43v6.61h-4.61l-.01-13.36z"/></defs><g><g transform="translate(-1366.89 -6747.6)"><g><use fill="#999" xlink:href="#52zma"/></g><g><use fill="#999" xlink:href="#52zmb"/></g></g></g></svg>