<svg xmlns="http://www.w3.org/2000/svg" xmlns:xlink="http://www.w3.org/1999/xlink" width="34.92" height="34.7" viewBox="0 0 34.92 34.7"><defs><path id="gwoia" d="M1222.9 2094.37a.65.65 0 0 0-.45-1.13h-3.07v-10.44c0-.36-.29-.65-.65-.65h-4.44c-.36 0-.65.3-.65.65v10.44h-3.1a.65.65 0 0 0-.43 1.14l6.18 5.53a.65.65 0 0 0 .89-.02z"/><path id="gwoib" d="M1209.84 2107.28c.03 0 .07-.01.1-.03l5.06-2.9c.06-.04.09-.1.09-.16a.18.18 0 0 0-.1-.16l-8.81-4.4.04-.02 3.16-1.58a.82.82 0 0 0-.74-1.46l-2.76 1.38-4.07-2.33 9.29-4.64a.82.82 0 1 0-.73-1.46l-10.65 5.32a.82.82 0 0 0-.04 1.44l4.39 2.52-4.94 2.83c-.06.03-.1.1-.09.16 0 .07.04.13.1.16l10.62 5.31.08.02z"/><path id="gwoic" d="M1215.66 2105.28l-5.5 3.16c-.17.1-.37.1-.54.02l-4.52-2.26a.18.18 0 0 0-.26.16v4.94c0 .07.04.13.1.16l10.73 5.37.08.02c.04 0 .07-.01.1-.03a.18.18 0 0 0 .08-.15v-11.23a.18.18 0 0 0-.27-.16z"/><path id="gwoid" d="M1228.93 2098.8l4.39-2.52a.82.82 0 0 0-.04-1.44l-10.65-5.32a.82.82 0 0 0-.73 1.46l9.29 4.64-4.07 2.33-2.57-1.28a.82.82 0 1 0-.74 1.46l2.97 1.48c.01 0 .03 0 .04.02l-8.81 4.4a.18.18 0 0 0-.1.16c0 .06.03.12.09.16l5.07 2.9a.18.18 0 0 0 .17 0l10.62-5.3c.06-.03.1-.1.1-.16a.18.18 0 0 0-.1-.16z"/><path id="gwoie" d="M1227.9 2106.2l-4.52 2.26a.57.57 0 0 1-.54-.02l-5.5-3.16a.18.18 0 0 0-.18 0 .18.18 0 0 0-.09.16v11.23a.18.18 0 0 0 .26.16l10.74-5.37c.06-.03.1-.1.1-.16v-4.94a.18.18 0 0 0-.09-.15.18.18 0 0 0-.17-.01z"/></defs><g><g transform="translate(-1199.04 -2082.15)"><g><use fill="#fff" xlink:href="#gwoia"/></g><g><use fill="#fff" xlink:href="#gwoib"/></g><g><use fill="#fff" xlink:href="#gwoic"/></g><g><use fill="#fff" xlink:href="#gwoid"/></g><g><use fill="#fff" xlink:href="#gwoie"/></g></g></g></svg>