<svg xmlns="http://www.w3.org/2000/svg" xmlns:xlink="http://www.w3.org/1999/xlink" width="28.64" height="35" viewBox="0 0 28.64 35"><defs><path id="cm4ya" d="M634.25 2307.02v-7.95h3.18v7.95z"/><path id="cm4yb" d="M640.62 2307.02v-7.95h3.18v7.95z"/><path id="cm4yc" d="M646.98 2307.02v-7.95h3.18v7.95z"/><path id="cm4yd" d="M653.34 2307.02v-7.95h3.18v7.95z"/><path id="cm4ye" d="M631.07 2298.27v-3.18h28.64v3.18z"/><path id="cm4yf" d="M631.07 2311v-3.18h28.64v3.18z"/><path id="cm4yg" d="M656.48 2294.3c.02-.27.04-.53.04-.8 0-5.6-4.15-10.24-9.54-11.01v-4.9a1.6 1.6 0 0 0-3.18 0v4.9c-5.4.77-9.55 5.4-9.55 11.01 0 .27.02.53.04.8z"/></defs><g><g transform="translate(-631.07 -2276)"><g><use fill="#fff" xlink:href="#cm4ya"/></g><g><use fill="#fff" xlink:href="#cm4yb"/></g><g><use fill="#fff" xlink:href="#cm4yc"/></g><g><use fill="#fff" xlink:href="#cm4yd"/></g><g><use fill="#fff" xlink:href="#cm4ye"/></g><g><use fill="#fff" xlink:href="#cm4yf"/></g><g><use fill="#fff" xlink:href="#cm4yg"/></g></g></g></svg>