<svg xmlns="http://www.w3.org/2000/svg" xmlns:xlink="http://www.w3.org/1999/xlink" width="39.35" height="39.47" viewBox="0 0 39.35 39.47"><defs><path id="jsxla" d="M344.93 2091.32c.16-6.77-.44-12.29-2.82-12.29-2.62 0-3.35 4.83-3.16 12.09l-16.86 9.92 1.15 1.96 5.34-1.33c.08.52.2 1.05.38 1.6h.82s.37-.8.5-2.02l5.05-1.25c.07.6.2 1.25.42 1.9h.82s.43-.93.51-2.34l2.34-.58c.36 4.27.87 8.94 1.42 13.72l-4.47 4.57.34 1.23 4.72-2.25h1.04l.01-.06 4.84 2.31.34-1.23-4.65-4.75c.45-3.27 1.07-8.27 1.49-13.44l2.56.63c.1 1.33.5 2.19.5 2.19h.83c.2-.6.33-1.2.4-1.76l5.1 1.27c.13 1.13.46 1.85.46 1.85h.83c.17-.49.28-.97.36-1.44l4.76 1.18 1.14-1.96z"/></defs><g><g transform="translate(-322.09 -2079.03)"><use fill="#fff" xlink:href="#jsxla"/></g></g></svg>