<svg xmlns="http://www.w3.org/2000/svg" xmlns:xlink="http://www.w3.org/1999/xlink" width="38.22" height="35" viewBox="0 0 38.22 35"><defs><path id="h1sja" d="M917.62 2088.57a8.6 8.6 0 0 1 6.13-2.52c2.31 0 4.49.91 6.14 2.52l.18.18c.6.6 1.56.6 2.13 0l.17-.18a8.6 8.6 0 0 1 6.14-2.52c2.3 0 4.49.91 6.14 2.52a8.45 8.45 0 0 1 2.44 7.4h-3.53c-.43 0-.83.18-1.13.53l-2.48 2.7-2.48-7.01c-.22-.57-.74-1-1.35-1-.61-.05-1.18.3-1.44.86l-2.74 5.93h-1.92c-.52 0-1.04.26-1.3.74l-2.1 3.4-3.78-8.72a1.47 1.47 0 0 0-1.4-.91h-.04c-.6 0-1.13.35-1.39.87l-2.26 4.83h-2.05a8.67 8.67 0 0 1-.74-3.52c.09-2.27 1-4.44 2.66-6.1zm13.5 25.77l-13.11-13.1h.78c.61 0 1.13-.35 1.4-.87l1.26-2.66 3.57 8.32c.21.52.74.87 1.3.91h.09c.52 0 1.04-.26 1.3-.74l3.14-5.18h2c.61 0 1.13-.35 1.4-.87l1.56-3.4 2.1 5.93c.17.52.6.87 1.12 1a1.6 1.6 0 0 0 1.44-.48l3.74-4.14H946c-.4.66-.83 1.27-1.4 1.83zm-1.1 3.22c.3.3.7.44 1.1.44.38 0 .77-.13 1.08-.44l14.58-14.58a11.59 11.59 0 0 0 3.44-8.27c0-3.13-1.22-6.1-3.44-8.27a11.59 11.59 0 0 0-8.27-3.44c-2.74 0-5.31.91-7.4 2.61a11.63 11.63 0 0 0-7.4-2.61c-3.13 0-6.05 1.22-8.27 3.44a11.59 11.59 0 0 0-3.44 8.27c0 3.13 1.22 6.05 3.44 8.27z"/></defs><g><g transform="translate(-912 -2083)"><use fill="#fff" xlink:href="#h1sja"/></g></g></svg>