<svg xmlns="http://www.w3.org/2000/svg" xmlns:xlink="http://www.w3.org/1999/xlink" width="35.34" height="29.62" viewBox="0 0 35.34 29.62"><defs><path id="m9bma" d="M928.15 2305.83c.2.5.31 1.05.31 1.64v.07c2.65.08 5.65.2 8.46.28 0-.63.15-1.17.42-1.68-3.11-.12-6.38-.2-9.19-.31z"/><path id="m9bmb" d="M948.14 2288.22l-28.44-4.52c-.16-.04-.27-.04-.43-.04a6.02 6.02 0 0 0-4.17-2.65.94.94 0 0 0-1.09.82.94.94 0 0 0 .82 1.09 3.94 3.94 0 0 1 2.96 2.03c0 .11-.04.2-.04.3l1.6 15.16c0 .63.39 1.17.93 1.4-.2.24-.46.43-.78.7-.7.55-1.48 1.18-1.48 2.19 0 .7.28 1.87 1.87 2.38.04-.59.24-1.13.47-1.64-.62-.2-.66-.47-.66-.78 0-.2.5-.62.86-.86a5.1 5.1 0 0 0 1.6-1.79l23.06 1.36c.82.08 1.52-.5 1.67-1.28l2.42-12.08c.16-.82-.35-1.6-1.17-1.8z"/><path id="m9bmc" d="M926.87 2305.8a3.14 3.14 0 0 0-5.18-.2 3.13 3.13 0 0 0-.63 1.63v.24c0 1.75 1.4 3.15 3.16 3.15 1.71 0 3.11-1.4 3.15-3.12v-.03a4.01 4.01 0 0 0-.5-1.68z"/><path id="m9bmd" d="M940.74 2305.24c-.82 0-1.52.35-2.03.94a2.8 2.8 0 0 0-.66 1.67v.08a2.7 2.7 0 0 0 5.38 0 2.7 2.7 0 0 0-2.7-2.69z"/></defs><g><g transform="translate(-914 -2281)"><g><use fill="#fff" xlink:href="#m9bma"/></g><g><use fill="#fff" xlink:href="#m9bmb"/></g><g><use fill="#fff" xlink:href="#m9bmc"/></g><g><use fill="#fff" xlink:href="#m9bmd"/></g></g></g></svg>