<svg xmlns="http://www.w3.org/2000/svg" xmlns:xlink="http://www.w3.org/1999/xlink" width="35" height="24" viewBox="0 0 35 24"><defs><path id="h6o9a" d="M641.23 1332.1h-25.46c-.87 0-1.59-.66-1.59-1.46v-10.19h28.64v10.19c0 .8-.72 1.45-1.6 1.45zm-25.46-18.2h25.46c.87 0 1.59.66 1.59 1.46v2.19h-28.64v-2.19c0-.8.72-1.45 1.6-1.45zm25.46-2.9h-25.46c-2.62 0-4.77 1.96-4.77 4.36v15.28c0 2.4 2.15 4.36 4.77 4.36h25.46c2.62 0 4.77-1.96 4.77-4.36v-15.28c0-2.4-2.15-4.36-4.77-4.36z"/><path id="h6o9b" d="M617 1325.91V1323h8.37v2.91z"/><path id="h6o9c" d="M617 1329.91V1327h17.92v2.91z"/></defs><g><g transform="translate(-611 -1311)"><use fill="#007ccf" xlink:href="#h6o9a"/></g><g transform="translate(-611 -1311)"><use fill="#007ccf" xlink:href="#h6o9b"/></g><g transform="translate(-611 -1311)"><use fill="#007ccf" xlink:href="#h6o9c"/></g></g></svg>