<svg xmlns="http://www.w3.org/2000/svg" xmlns:xlink="http://www.w3.org/1999/xlink" width="31.7" height="29.43" viewBox="0 0 31.7 29.43"><defs><path id="rqrja" d="M212.48 1332.58v-3.85h26.74v3.85zm26.74-19.1v12.77h-26.74v-12.77zm.04-2.48h-26.78a2.44 2.44 0 0 0-2.48 2.48v19.1c0 1.4 1.07 2.48 2.48 2.48h12.11v2.89h-3.27c-.7 0-1.24.54-1.24 1.24s.54 1.24 1.24 1.24h9.02c.7 0 1.24-.54 1.24-1.24s-.54-1.24-1.24-1.24h-3.27v-2.9h12.15c1.4 0 2.48-1.07 2.48-2.47v-19.1a2.4 2.4 0 0 0-2.44-2.48z"/></defs><g><g transform="translate(-210 -1311)"><use fill="#007ccf" xlink:href="#rqrja"/></g></g></svg>