<svg xmlns="http://www.w3.org/2000/svg" xmlns:xlink="http://www.w3.org/1999/xlink" width="30.88" height="34.75" viewBox="0 0 30.88 34.75"><defs><path id="tqeca" d="M1232.47 2283.59c-1.87-2.99-5.22-4.57-8.81-4.56v-.01l-.45-.02c-.23.02-.4.21-.41.45l-.12 1.49c0 .14.01.27.1.37a.4.4 0 0 0 .23.14l.37.02c2.9-.1 5.6 1.06 7.05 3.39 1.46 2.33 1.32 5.26-.04 7.82l-.15.35a.4.4 0 0 0 .03.26c.05.13.16.2.28.26l1.4.54c.22.1.46.03.58-.17l.18-.4-.01-.01c1.58-3.23 1.63-6.93-.23-9.92z"/><path id="tqecb" d="M1228.19 2286.27a5.97 5.97 0 0 0-5.19-2.7l-.43-.01c-.22.02-.38.2-.4.43l-.1 1.44c-.02.13 0 .26.09.35.07.07.12.12.22.14l.31.01h.04c1.44-.1 2.77.45 3.48 1.58.7 1.12.6 2.56-.12 3.8l-.01.05-.13.28c-.02.1 0 .17.03.26.05.12.15.2.28.24l1.33.53c.22.09.45.02.57-.17l.17-.39c.93-1.9.96-4.08-.14-5.84z"/><path id="tqecc" d="M1222.85 2305.18c-1.25 1.24-5.83-1.33-10.24-5.74s-6.98-9-5.74-10.24c1.12-1.12 4.98.87 8.96 4.52l-2.7 2.14c-.46.47-.14 1.55.73 2.41.87.87 1.95 1.2 2.41.73l2.14-2.7c3.6 3.96 5.55 7.76 4.44 8.88zm-1.34-12.8a2.69 2.69 0 0 0 2.7-4.47 2.7 2.7 0 0 0-4.46 2.71l-2.35 1.86c-4.96-4.54-10.2-6.7-12.07-4.82-.37.36-.45.45-.78.92-2.04 2.86-.95 7.79 1.88 12.22.26.4.53.79.82 1.16l-4.19 10.3a1.12 1.12 0 0 0 2.06.85l3.8-9.32c.9.85 1.89 1.62 2.97 2.32l2.85 7a1.12 1.12 0 0 0 2.06-.84l-1.82-4.47c3.55 1.52 7.08 1.26 9.14-.8l.27-.28c1.86-1.86-.25-7.05-4.74-11.98z"/></defs><g><g transform="translate(-1203 -2279)"><g><use fill="#fff" xlink:href="#tqeca"/></g><g><use fill="#fff" xlink:href="#tqecb"/></g><g><use fill="#fff" xlink:href="#tqecc"/></g></g></g></svg>