<svg xmlns="http://www.w3.org/2000/svg" xmlns:xlink="http://www.w3.org/1999/xlink" width="37.32" height="29.2" viewBox="0 0 37.32 29.2"><defs><path id="nzx2a" d="M654.13 2098.38a.12.12 0 0 0-.12.12v5.26c0 .06.05.11.12.11h9.75c.06 0 .12-.05.12-.11v-5.26a.12.12 0 0 0-.12-.12zm9.75 7.9h-9.75a2.53 2.53 0 0 1-2.53-2.53v-5.25c0-1.4 1.13-2.53 2.53-2.53h9.75c1.4 0 2.53 1.13 2.53 2.53v5.25c0 1.4-1.14 2.53-2.53 2.53z"/><path id="nzx2b" d="M656.88 2102.27a1.19 1.19 0 0 1-1.19-1.2c0-.33.11-.64.34-.86a1.24 1.24 0 0 1 1.7 0c.23.22.36.53.36.85 0 .3-.13.63-.34.85-.24.23-.55.36-.87.36z"/><path id="nzx2c" d="M660.6 2114.6h-27.17c-2.23 0-4.34 0-4.34-3.64.13-3.99.2-4.65.32-5.96.09-.88.2-2.07.4-4.83.02-.56-.32-5.46-.5-8.1l-.22-3.18c0-.8.28-1.5.82-2.03 1.48-1.47 4.57-1.48 6.8-1.45h17.91c1.64.02 4.72 1.19 4.72 5.49a1.2 1.2 0 0 1-2.41 0c0-2.85-1.95-3.07-2.34-3.08h-17.88c-1.4-.03-4.33-.02-5.1.75a.35.35 0 0 0-.1.28c0 .23.09 1.47.2 3.05.37 5.3.54 7.9.5 8.44-.2 2.79-.31 4-.4 4.9-.13 1.3-.18 1.88-.3 5.76 0 .86.12 1.06.13 1.08.19.12 1.2.12 1.79.12h27.18c1.22 0 1.22 0 1.22-2.11v-5.01a1.2 1.2 0 0 1 2.4 0v5c0 2.23 0 4.53-3.62 4.53z"/><path id="nzx2d" d="M663.03 2098.39a1.2 1.2 0 0 1-1.2-1.21v-3.21c0-.64-.15-1.1-.47-1.4-.5-.47-1.3-.45-1.3-.47h-26.93a4.8 4.8 0 0 1-3.19-1.15 2.9 2.9 0 0 1-.85-2.1 1.2 1.2 0 0 1 2.41 0c0 .22.07.32.14.4.35.34 1.2.44 1.48.44h26.9c.15 0 1.8-.03 3.02 1.15.54.53 1.2 1.5 1.2 3.13v3.21c0 .67-.54 1.2-1.2 1.2z"/></defs><g><g transform="translate(-629.09 -2085.4)"><g><use fill="#fff" xlink:href="#nzx2a"/></g><g><use fill="#fff" xlink:href="#nzx2b"/></g><g><use fill="#fff" xlink:href="#nzx2c"/></g><g><use fill="#fff" xlink:href="#nzx2d"/></g></g></g></svg>