<svg xmlns="http://www.w3.org/2000/svg" xmlns:xlink="http://www.w3.org/1999/xlink" width="28" height="28" viewBox="0 0 28 28"><defs><path id="kh99a" d="M1029 1337.79c-4.23.77-8.74-.54-12.01-3.92a14.46 14.46 0 0 1 0-19.94 13.4 13.4 0 0 1 7.31-3.93v5.23a8.65 8.65 0 0 0-3.82 2.31 9.21 9.21 0 0 0 0 12.72 8.5 8.5 0 0 0 6.8 2.6z"/><path id="kh99b" d="M1041 1326c-.5 2.81-1.85 5.5-4.06 7.68-.95.93-2 1.7-3.1 2.32l-1.84-5a9.18 9.18 0 0 0 3.58-5z"/><path id="kh99c" d="M1032.78 1317.22a8.62 8.62 0 0 0-3.78-2.2V1310a13.44 13.44 0 0 1 11 11h-5.01a8.62 8.62 0 0 0-2.21-3.78z"/></defs><g><g transform="translate(-1013 -1310)"><g><use fill="#fff" fill-opacity="0" stroke="#007ccf" stroke-miterlimit="50" stroke-width="2" xlink:href="#kh99a"/></g><g><use fill="#fff" fill-opacity="0" stroke="#007ccf" stroke-miterlimit="50" stroke-width="2" xlink:href="#kh99b"/></g><g><use fill="#fff" fill-opacity="0" stroke="#007ccf" stroke-miterlimit="50" stroke-width="2" xlink:href="#kh99c"/></g></g></g></svg>