<svg xmlns="http://www.w3.org/2000/svg" xmlns:xlink="http://www.w3.org/1999/xlink" width="57" height="57" viewBox="0 0 57 57"><defs><path id="up7sa" d="M209 4154.5a28.5 28.5 0 1 1 57 0 28.5 28.5 0 0 1-57 0z"/><path id="up7sb" d="M243.7 4153.7l-7.2-7.2a1.7 1.7 0 0 0-2.4 0l-.6.6a1.7 1.7 0 0 0 0 2.4l5.5 5.5-5.5 5.5a1.7 1.7 0 0 0 0 2.4l.6.6a1.7 1.7 0 0 0 2.4 0l7.2-7.2c.36-.36.52-.83.5-1.3.02-.47-.14-.94-.5-1.3z"/></defs><g><g opacity=".16" transform="translate(-209 -4126)"><use fill="#007fd4" xlink:href="#up7sa"/></g><g opacity=".3" transform="translate(-209 -4126)"><use fill="#007fd4" xlink:href="#up7sb"/></g></g></svg>