<svg xmlns="http://www.w3.org/2000/svg" xmlns:xlink="http://www.w3.org/1999/xlink" width="2616.92" height="1271.44" viewBox="0 0 2616.92 1271.44"><defs><path id="uc6ja" d="M-21 878V0h1642v878z"/><path id="uc6jd" d="M647.6 958.28s124.83-293.54 394.92-167.62c270.08 125.92 451.28-31.4 487.63-86.65 36.34-55.25 97.42-274.78 357.67-204.1 260.26 70.7 161.16-26.57 161.16-26.57s-5.09 89.91-21.45 108.26c-277.3 311.12-450.12 415.45-460.41 416.17-16.35 1.14-736.15 175.89-755.9 163.39-19.76-12.5-173.84-172.8-174.43-181.18-.58-8.39 10.82-21.7 10.82-21.7z"/><path id="uc6je" d="M136.8 880.26s209.42-240.6 427.38-37.37c217.95 203.21 438.9 109.6 490.54 68.27 51.64-41.32 177.56-231.22 403.24-83.57 225.67 147.65 161.48 24.52 161.48 24.52s-32.63 83.94-53.86 96.34c-359.87 210.2-556.47 256.02-566.48 253.52-15.9-3.97-754.47-60.2-769.4-78.2-14.92-17.99-111.93-218.05-109.9-226.2 2.04-8.17 17-17.3 17-17.3z"/><path id="uc6jf" d="M927 897.94S665.41 573.77 434.03 758.28c-231.38 184.5-365.05.16-405.15-52.42-40.11-52.6-116.36-267.32-371.05-178.65-254.69 88.66-162.62-15.27-162.62-15.27s11.35 89.33 28.95 106.5c298.33 291.01 478 383.04 488.32 383.04 16.4 0 746.63 124.1 765.47 110.26 18.83-13.85 161.36-184.5 161.36-192.9 0-8.41-12.3-20.9-12.3-20.9z"/><linearGradient id="uc6jb" x1="800" x2="800" y1="269.86" y2="878" gradientUnits="userSpaceOnUse"><stop offset="0" stop-color="#0a68a5"/><stop offset="1" stop-color="#007fd4"/></linearGradient><clipPath id="uc6jc"><use xlink:href="#uc6ja"/></clipPath></defs><g><g transform="translate(521)"><use fill="url(#uc6jb)" xlink:href="#uc6ja"/></g><g clip-path="url(#uc6jc)" opacity=".46" transform="translate(521)"><use fill="#fff" xlink:href="#uc6jd"/></g><g clip-path="url(#uc6jc)" opacity=".46" transform="translate(521)"><use fill="#fff" xlink:href="#uc6je"/></g><g clip-path="url(#uc6jc)" opacity=".21" transform="translate(521)"><use fill="#fff" xlink:href="#uc6jf"/></g></g></svg>