<svg xmlns="http://www.w3.org/2000/svg" xmlns:xlink="http://www.w3.org/1999/xlink" width="99" height="99" viewBox="0 0 99 99"><defs><path id="e83ka" d="M759 6472a13 13 0 1 1 26 0 13 13 0 0 1-26 0z"/><path id="e83kb" d="M747 6472.5a25.5 25.5 0 1 1 51 0 25.5 25.5 0 0 1-51 0z"/><path id="e83kc" d="M723 6472.5a49.5 49.5 0 1 1 99 0 49.5 49.5 0 0 1-99 0z"/><mask id="e83ke" width="2" height="2" x="-1" y="-1"><path fill="#fff" d="M759 6459h26v26h-26z"/><use xlink:href="#e83ka"/></mask><filter id="e83kd" width="70" height="74" x="737" y="6449" filterUnits="userSpaceOnUse"><feOffset dy="4" in="SourceGraphic" result="FeOffset1414Out"/><feGaussianBlur in="FeOffset1414Out" result="FeGaussianBlur1415Out" stdDeviation="4.8 4.8"/></filter></defs><g><g transform="translate(-723 -6423)"><g opacity=".2"><use fill="#1950f5" xlink:href="#e83kb"/></g><g opacity=".1"><use fill="#445158" xlink:href="#e83kc"/></g><g><g filter="url(#e83kd)"><use fill="none" stroke-opacity=".78" stroke-width="0" mask="url(&quot;#e83ke&quot;)" xlink:href="#e83ka"/><use fill="#007fd4" fill-opacity=".78" xlink:href="#e83ka"/></g><use fill="#007fd4" xlink:href="#e83ka"/></g></g></g></svg>