<svg xmlns="http://www.w3.org/2000/svg" xmlns:xlink="http://www.w3.org/1999/xlink" width="59.03" height="59.21" viewBox="0 0 59.03 59.21"><defs><path id="wnjoa" d="M805 245.28c.23-10.17-.67-18.44-4.24-18.44-3.92 0-5.03 7.25-4.73 18.13l-25.3 14.89 1.72 2.94 8.01-2c.12.78.3 1.58.57 2.39h1.24s.55-1.18.74-3.02l7.57-1.88c.1.91.3 1.87.63 2.85h1.24s.65-1.39.77-3.5l3.5-.88c.54 6.4 1.3 13.41 2.14 20.58l-6.7 6.87.5 1.84 7.07-3.38h1.58v-.1l7.26 3.47.52-1.83-6.98-7.14c.67-4.9 1.6-12.4 2.23-20.16l3.85.95c.15 2 .76 3.28.76 3.28h1.24c.3-.9.49-1.78.6-2.63l7.63 1.9c.2 1.7.7 2.78.7 2.78h1.25c.25-.73.42-1.46.54-2.16l7.13 1.77 1.72-2.94z"/></defs><g><g transform="translate(-770.73 -226.84)"><use fill="#fff" xlink:href="#wnjoa"/></g></g></svg>