<svg xmlns="http://www.w3.org/2000/svg" xmlns:xlink="http://www.w3.org/1999/xlink" width="26" height="24" viewBox="0 0 26 24"><defs><path id="qci8a" d="M227 1828c-.55 0-1 .67-1 1.5s.45 1.5 1 1.5 1-.67 1-1.5-.45-1.5-1-1.5zm3 0c-.55 0-1 .67-1 1.5s.45 1.5 1 1.5 1-.67 1-1.5-.45-1.5-1-1.5zm3 0c-.55 0-1 .67-1 1.5s.45 1.5 1 1.5 1-.67 1-1.5-.45-1.5-1-1.5zm2 3h-22v-3.7c0-.17.14-.3.3-.3h21.4c.16 0 .3.13.3.3zm1 15.7c0 .16-.14.3-.32.3H220v-14h16zm-18 .3h-4.68a.32.32 0 0 1-.32-.3V1833h5zm16.83-22h-21.66c-1.2 0-2.17.98-2.17 2.19v19.62c0 1.2.97 2.19 2.17 2.19h21.66c1.2 0 2.17-.98 2.17-2.19v-19.62c0-1.2-.98-2.19-2.17-2.19z"/></defs><g><g transform="translate(-211 -1825)"><use fill="#007fd4" xlink:href="#qci8a"/></g></g></svg>