<svg xmlns="http://www.w3.org/2000/svg" xmlns:xlink="http://www.w3.org/1999/xlink" width="22.26" height="18.09" viewBox="0 0 22.26 18.09"><defs><path id="xusna" d="M1320 6768.1c8.4 0 13-6.97 13-13 0-.2 0-.4-.02-.6a9.29 9.29 0 0 0 2.28-2.36 9 9 0 0 1-2.63.72 4.58 4.58 0 0 0 2.01-2.53c-.9.53-1.88.9-2.9 1.1a4.57 4.57 0 0 0-7.78 4.18 12.97 12.97 0 0 1-9.41-4.77 4.57 4.57 0 0 0 1.41 6.1 4.5 4.5 0 0 1-2.07-.58v.06a4.57 4.57 0 0 0 3.66 4.47c-.67.19-1.37.21-2.06.08a4.57 4.57 0 0 0 4.27 3.17 9.19 9.19 0 0 1-6.76 1.9 12.92 12.92 0 0 0 7 2.05"/></defs><g><g transform="translate(-1313 -6750)"><use fill="#999" xlink:href="#xusna"/></g></g></svg>