<svg xmlns="http://www.w3.org/2000/svg" xmlns:xlink="http://www.w3.org/1999/xlink" width="34.08" height="27.06" viewBox="0 0 34.08 27.06"><defs><path id="5ad3a" d="M231.14 1206.36c.4-.88.3-1.94.25-2.91-.03-.4-.05-.82-.03-1.23.03-.97.57-1.86 1.41-2.35 1.08-.59 2.61-.37 4.29.6a3.68 3.68 0 0 1 1.84 2.9c.1 1.4-.5 2.78-1.6 3.66-2.44 2.1-5.73 1.51-7.42.97.55-.43.98-.99 1.27-1.62zm-17.36 3.58H231c.07 0 .15-.01.22-.03.59.1 1.18.15 1.78.15 1.93.05 3.82-.6 5.32-1.83a5.84 5.84 0 0 0 2.14-4.99 5.22 5.22 0 0 0-2.61-4.1c-2.93-1.7-4.9-1.13-5.82-.63a4.4 4.4 0 0 0-2.24 3.64c-.01.47 0 .94.04 1.41.05.82.1 1.67-.13 2.22-.32.78-1.28 1.37-1.75 1.59l-.46.22v.5c0 .1.03.22.07.31h-13.8a.78.78 0 0 0 0 1.56z"/><path id="5ad3b" d="M244.54 1183.36h-.03a4.28 4.28 0 0 0-5.55 1.99l-4.75 9.48a1.95 1.95 0 0 0 .94 2.65l4.26 1.92c.95.43 2.07.03 2.54-.9l4.67-9.32a4.28 4.28 0 0 0-2.07-5.84z"/></defs><g><g transform="translate(-213 -1183)"><g><use fill="#007fd4" xlink:href="#5ad3a"/></g><g><use fill="#007fd4" xlink:href="#5ad3b"/></g></g></g></svg>