<svg xmlns="http://www.w3.org/2000/svg" xmlns:xlink="http://www.w3.org/1999/xlink" width="22.25" height="30.46" viewBox="0 0 22.25 30.46"><defs><path id="yhgja" d="M625.88 1194.7l-.72.68-1.41-1.4.69-.72zm-10.63-.72l-1.4 1.4-.73-.68 1.44-1.44zm4.5-3.94c.84 0 1.5.66 1.5 1.5v6c0 .26.24.5.5.5H632c.66 0 1.25.63 1.25 1.5v2c0 3.3-1.9 6.57-4.75 8.22a9.73 9.73 0 0 1-9.5 0 9.72 9.72 0 0 1-4.75-8.03v-.03-.1-.06c0-.87.59-1.5 1.25-1.5h2.25c.26 0 .5-.24.5-.5v-8c0-.84.66-1.5 1.5-1.5zm8.25-1.5v1h-2v-1zm-15 0v1h-2v-1zm6.47-4.5a5 5 0 0 1 5.03 5c0 1.42-.73 2.63-1.75 3.56v-1.06c0-1.5-1.18-2.63-2.63-2.84-.52 0-.72-.02-1.09.12-1.24.34-2.28 1.34-2.28 2.72v1.4a4.84 4.84 0 0 1-2.25-3.9 5 5 0 0 1 4.97-5zm6.4-.66l-1.43 1.41-.69-.72 1.4-1.4zm-10.62.7l-.69.71-1.43-1.4.71-.73zm4.75-3.54v2h-1v-2z"/></defs><g><g transform="translate(-611 -1180.54)"><use fill="#007ccf" xlink:href="#yhgja"/></g></g></svg>