<svg xmlns="http://www.w3.org/2000/svg" xmlns:xlink="http://www.w3.org/1999/xlink" width="26" height="23.61" viewBox="0 0 26 23.61"><defs><path id="af8da" d="M1029.43 1199.2a13.05 13.05 0 0 0 7.57-11.81h-2.53c0 5.32-4.02 9.74-9.2 10.4v-10.4h-2.54v10.4a10.46 10.46 0 0 1-9.2-10.4H1011c0 5.21 3.11 9.74 7.57 11.8A13.05 13.05 0 0 0 1011 1211h2.53c0-5.32 4.02-9.74 9.2-10.4v10.4h2.54v-10.4c5.18.62 9.2 5.04 9.2 10.4h2.53c0-5.21-3.11-9.74-7.57-11.8z"/></defs><g><g transform="translate(-1011 -1187.39)"><use fill="#007ccf" xlink:href="#af8da"/></g></g></svg>